<?xml version="1.0" encoding="UTF-8" standalone="no"?>
<!-- Created with Inkscape (http://www.inkscape.org/) -->

<svg
   xmlns:dc="http://purl.org/dc/elements/1.1/"
   xmlns:cc="http://creativecommons.org/ns#"
   xmlns:rdf="http://www.w3.org/1999/02/22-rdf-syntax-ns#"
   xmlns:svg="http://www.w3.org/2000/svg"
   xmlns="http://www.w3.org/2000/svg"
   xmlns:sodipodi="http://sodipodi.sourceforge.net/DTD/sodipodi-0.dtd"
   xmlns:inkscape="http://www.inkscape.org/namespaces/inkscape"
   id="svg2"
   version="1.1"
   inkscape:version="0.91 r13725"
   xml:space="preserve"
   width="241.25"
   height="141.25"
   viewBox="0 0 241.25 241.25"
   sodipodi:docname="logo_agt.svg"><metadata
     id="metadata8"><rdf:RDF><cc:Work
         rdf:about=""><dc:format>image/svg+xml</dc:format><dc:type
           rdf:resource="http://purl.org/dc/dcmitype/StillImage" /><dc:title /></cc:Work></rdf:RDF></metadata><defs
     id="defs6" /><sodipodi:namedview
     pagecolor="#ffffff"
     bordercolor="#666666"
     borderopacity="1"
     objecttolerance="10"
     gridtolerance="10"
     guidetolerance="10"
     inkscape:pageopacity="0"
     inkscape:pageshadow="2"
     inkscape:window-width="1920"
     inkscape:window-height="1024"
     id="namedview4"
     showgrid="false"
     inkscape:zoom="2.7668759"
     inkscape:cx="33.092923"
     inkscape:cy="122.75307"
     inkscape:window-x="0"
     inkscape:window-y="27"
     inkscape:window-maximized="1"
     inkscape:current-layer="g10" /><g
     id="g10"
     inkscape:groupmode="layer"
     inkscape:label="ink_ext_XXXXXX"
     transform="matrix(1.25,0,0,-1.25,0,241.25)"><path
       style="fill:#668000"
       d="m 31.828096,30.901895 c 0.01653,0.234805 2.619532,4.525491 5.784431,9.534849 l 5.754364,9.107937 29.043732,0.14695 29.043727,0.146951 1.72366,-8.685609 c 0.94801,-4.777071 1.8302,-9.005795 1.96043,-9.397159 0.18479,-0.555357 -2.16966,-0.711552 -10.726089,-0.711552 l -10.962863,0 -0.608123,6.68864 c -0.334474,3.678739 -0.700882,7.014153 -0.81425,7.412021 -0.159685,0.560381 -2.530049,0.688651 -10.519175,0.569249 l -10.313042,-0.154196 -3.601703,-7.537551 -3.601704,-7.537551 -11.096732,-0.0047 c -6.103202,-0.0032 -11.083201,0.187177 -11.066663,0.421999 z"
       id="path3346"
       inkscape:connector-curvature="0" /><path
       style="fill:#668000"
       d="m 130.42629,28.161418 c -10.58822,1.890936 -18.18826,7.771208 -21.04164,16.280223 -1.93128,5.759245 -2.58081,5.387664 9.41758,5.387664 9.51334,0 10.50456,-0.09151 10.7971,-0.996177 1.40449,-4.343717 5.62595,-6.975847 11.12525,-6.936739 2.08141,0.01418 4.51603,0.429432 5.83576,0.99386 l 2.26441,0.968457 1.12137,4.977667 1.12139,4.977651 -5.04393,0 c -3.70612,0 -5.0384,0.188721 -5.02307,0.711554 0.0113,0.391363 0.64709,3.273168 1.41251,6.404015 l 1.39168,5.692449 14.40351,0.151204 c 7.92194,0.08316 14.39388,-0.04489 14.38207,-0.284625 -0.0113,-0.239688 -1.69647,-7.608301 -3.74374,-16.374677 l -3.7223,-15.938881 -4.54693,-1.916089 c -2.5008,-1.053854 -6.61318,-2.403892 -9.13866,-3.000089 -5.15433,-1.216808 -16.90698,-1.830628 -21.01236,-1.097451 z"
       id="path3348"
       inkscape:connector-curvature="0" /><path
       style="fill:#668000"
       d="m -53.914658,56.375625 0,1.992369 91.324826,0 91.324822,0 0,-1.992369 0,-1.992353 -91.324822,0 -91.324826,0 0,1.992353 z"
       id="path3350"
       inkscape:connector-curvature="0" /><path
       style="fill:#668000"
       d="m -53.914658,56.375625 0,1.992369 91.324826,0 91.324822,0 0,-1.992369 0,-1.992353 -91.324822,0 -91.324826,0 0,1.992353 z"
       id="path3352"
       inkscape:connector-curvature="0" /><path
       style="fill:#aad400"
       d="m -53.914658,64.914314 0,1.992352 92.399801,0 c 87.799687,0 92.381507,-0.04961 92.032237,-0.996176 -0.20216,-0.54789 -0.4831,-1.444462 -0.62429,-1.992352 -0.24327,-0.943995 -5.06492,-0.996192 -92.032232,-0.996192 l -91.775516,0 0,1.992368 z"
       id="path3354"
       inkscape:connector-curvature="0" /><path
       style="fill:#ccff00"
       d="m 86.5164,63.348023 c 4.980764,0.09325 13.131122,0.09325 18.1119,0 4.98079,-0.09325 0.9056,-0.169457 -9.055957,-0.169457 -9.961541,0 -14.03672,0.07623 -9.055943,0.169457 z"
       id="path3356"
       inkscape:connector-curvature="0" /><path
       style="fill:#aad400"
       d="m 110.36799,71.285208 c 0,0.216613 0.91624,2.11459 2.03609,4.217746 8.0493,15.117169 24.00581,23.515711 42.86047,22.559149 6.75299,-0.342602 10.87427,-1.586028 14.51168,-4.378305 4.41433,-3.388668 6.9031,-9.866269 6.14711,-15.999298 l -0.3462,-2.808393 -9.26318,0.0032 -9.26317,0.0032 -0.0937,2.028909 c -0.2085,4.513616 -4.91218,8.163701 -9.5969,7.447286 -4.66543,-0.713493 -10.07508,-5.165301 -13.42223,-11.045699 l -1.3765,-2.418287 -11.09672,-0.001 c -6.10321,-5.67e-4 -11.09673,0.176199 -11.09673,0.392797 z"
       id="path3360"
       inkscape:connector-curvature="0" /><path
       style="fill:#aad400"
       d="m 57.154855,71.652081 c 0.224399,0.418375 3.371588,5.797754 6.993754,11.954166 l 6.585754,11.193461 11.796229,0 11.796229,0 1.941392,-10.673358 c 1.067768,-5.870351 2.061666,-11.249714 2.208659,-11.954163 l 0.267268,-1.2808 -9.44214,0 -9.442128,0 -0.363258,4.035877 c -0.68174,7.574199 -0.734168,7.59532 -3.584887,1.443737 l -2.532843,-5.465659 -8.316014,-0.0063 c -6.803877,-0.0063 -8.241824,0.131357 -7.908015,0.753716 z"
       id="path3362"
       inkscape:connector-curvature="0" /><path
       style="fill:#aad400"
       d="m -45.751544,89.562653 c -15.804938,-145.175762 -7.90247,-72.587884 0,0 z"
       id="path3368"
       inkscape:connector-curvature="0"
       sodipodi:nodetypes="cc" /><path
       style="fill:#aad400"
       d=""
       id="path3378"
       inkscape:connector-curvature="0"
       transform="matrix(0.8,0,0,-0.8,0,193)" /><path
       style="fill:#aad400"
       d="m 183.31297,30.899673 c 0.005,0.138447 2.70683,11.391246 6.00338,25.006404 l 5.99373,24.754821 -8.7091,0.05234 c -4.79001,0.02868 -8.70675,0.119227 -8.70389,0.20125 0.003,0.08189 0.7182,3.318844 1.58961,7.193079 l 1.58435,7.044066 37.25417,0.05081 37.25417,0.05081 -1.74932,-6.994223 -1.74932,-6.994206 -18.69556,-0.05114 c -10.28258,-0.02824 -18.69558,-0.08821 -18.69558,-0.13324 0,-0.08854 -11.85135,-49.496422 -12.01254,-50.079845 -0.091,-0.329686 -0.71358,-0.352192 -9.73553,-0.352192 -7.59549,0 -9.63619,0.05339 -9.62857,0.251563 z"
       id="path3380"
       inkscape:connector-curvature="0" /><path
       d="m 62.637345,135.94766 c -0.233576,0 -0.346393,-0.0963 -0.346393,-0.2842 0,-0.27798 0.112879,-0.41929 0.346393,-0.41929 0.341628,0 0.514824,0.14136 0.514824,0.41929 0,0.18783 -0.173191,0.2842 -0.514824,0.2842 m -1.213965,-1.68495 c 0.2304,0 0.347982,-0.19098 0.347982,-0.56372 0,-0.0932 -0.117589,-0.14136 -0.347982,-0.14136 -0.22881,0 -0.347983,0.0482 -0.347983,0.14136 0,0.37271 0.11916,0.56372 0.347983,0.56372 M 32.68227,18.856343 c -0.231989,0 -0.341627,-0.14443 -0.341627,-0.423958 0,-0.186346 0.109649,-0.276426 0.341627,-0.276426 0.22722,0 0.347983,0.09007 0.347983,0.276426 0,0.279531 -0.120766,0.423958 -0.347983,0.423958 m -12.981805,20.915202 0,0.425511 c 0,0.09163 -0.0286,0.236047 -0.08739,0.422403 -0.05719,0.18481 -0.08739,0.372709 -0.08739,0.55751 l 0,0.287299 c -0.6928,-1.031165 -1.299783,-2.06388 -1.816193,-3.090383 -0.52118,-1.035819 -0.78018,-2.160162 -0.78018,-3.368361 l 0,-1.125892 c 0,-0.468991 0.05243,-0.844807 0.174779,-1.125892 0.694376,1.315353 1.298181,2.483175 1.814595,3.506573 0.524355,1.032717 0.781766,2.203642 0.781766,3.511232 M 52.248725,11.549687 c 0,-0.46744 -0.231988,-0.790455 -0.691198,-0.978362 -0.465566,-0.186347 -1.013757,-0.321462 -1.647752,-0.423958 -0.64035,-0.08846 -1.271168,-0.110331 -1.903575,-0.06523 -0.632406,0.0466 -1.124984,0.06523 -1.472964,0.06523 -2.313528,0 -3.983523,0.256238 -5.024294,0.77803 -1.031235,0.510923 -2.016389,1.613522 -2.937986,3.295373 -0.346393,0.375814 -0.548194,0.700382 -0.606984,0.986127 -0.05719,0.281085 -0.316202,0.512475 -0.777,0.700384 -0.233578,0.09006 -0.637174,0.09006 -1.212377,0 l 0,-1.545192 -0.171604,0 c -0.122354,0 -0.293957,0.09158 -0.522765,0.282638 -0.230402,0.08846 -0.432198,0.444145 -0.603806,1.048244 -0.17478,0.611865 -0.26059,0.964386 -0.26059,1.062223 l -0.174779,0 -0.173192,0 c -0.230398,-0.191011 -0.373404,-0.500052 -0.432195,-0.911586 -0.05879,-0.425509 -0.319381,-0.636711 -0.780179,-0.636711 l -0.173192,0.130452 c -0.116003,0.569937 -0.23199,1.129 -0.341627,1.695828 -0.122354,0.554407 -0.293957,1.169375 -0.52118,1.823169 l -0.522766,-0.700383 -0.343216,0.276428 c 0,0.380472 -0.119161,1.102597 -0.346393,2.180348 -0.231989,1.069986 -0.45921,1.799876 -0.691198,2.169478 -0.11759,0.565278 -0.408364,0.934881 -0.865984,1.122787 l 0,-1.122787 c -0.233576,0.565278 -0.722976,1.225283 -1.472964,1.969149 -0.753168,0.745419 -1.619152,1.42872 -2.596362,2.032819 -0.983567,0.610311 -1.933764,1.142975 -2.853773,1.618179 -0.924776,0.464333 -1.735144,0.703489 -2.426342,0.703489 0,-0.473653 0.403596,-1.152294 1.210788,-2.034373 0.805602,-0.891394 1.703365,-1.829381 2.682164,-2.810847 0.98039,-0.983023 1.932175,-1.944302 2.860129,-2.879181 0.921597,-0.933326 1.4968,-1.680298 1.728789,-2.247127 0.116002,0 0.171604,-0.133543 0.171604,-0.422403 0,-0.186366 -0.02701,-0.444146 -0.0858,-0.76716 -0.05879,-0.333884 -0.08579,-0.585464 -0.08579,-0.773373 l 0,-0.416191 c 0,-0.475204 0.171602,-0.847912 0.517999,-1.12434 0.116001,-0.186365 0.436965,-0.802878 0.954965,-1.83404 0.513236,-1.023398 0.835793,-1.63371 0.951787,-1.821616 l 0,-0.135099 c 0,-0.475203 -0.177964,-0.779584 -0.519589,-0.91469 -0.346392,-0.139765 -0.630817,-0.211202 -0.864395,-0.211202 l -7.096296,0 c -1.272757,0 -2.197531,0.394451 -2.774324,1.191117 -0.578382,0.793561 -1.151996,1.565379 -1.731966,2.315455 -0.465566,0.375815 -0.746812,0.56683 -0.862807,0.56683 -0.465563,0 -0.811956,0.02011 -1.040769,0.06362 -0.233575,0.0482 -0.462387,0.680195 -0.692785,1.903924 l -0.518002,-0.847915 c -0.578381,0.847915 -0.981977,1.914795 -1.210787,3.227042 l -0.86916,-1.403871 -0.346393,0 0,4.638677 c -0.456033,-0.187905 -0.77859,-0.475209 -0.951786,-0.844813 -0.171604,-0.374261 -0.319381,-0.656899 -0.4322,-0.847912 l 0,7.441763 c 0,0.748522 -0.31938,1.340199 -0.9517867,1.759498 -0.6355846,0.422403 -1.3267806,0.819959 -2.0799478,1.189562 -0.7483992,0.37588 -1.4666107,0.754799 -2.1578069,1.125957 -0.6943748,0.375814 -1.0439457,0.93022 -1.0439457,1.686509 0.112808,0.468992 0.4592077,1.357282 1.0439457,2.664871 0.5720255,1.30759 0.97721,2.198984 1.2060197,2.675743 0.2335778,0.551299 0.3463944,0.930219 0.3463944,1.118127 l 0,0.981469 c 0,1.214411 -0.2891914,2.403975 -0.8612179,3.579562 -0.5799689,1.167823 -1.2997677,2.29061 -2.1641621,3.369913 -0.8659845,1.069985 -1.7669246,2.149289 -2.6837544,3.22704 -0.92795194,1.076201 -1.67794133,2.178797 -2.25314608,3.301584 -1.15834992,2.144633 -1.87497152,4.283051 -2.16257302,6.385752 -0.2876033,2.107361 -0.7229776,4.332751 -1.2981805,6.669941 -0.1191605,0.565279 -0.4925776,1.166282 -1.1297519,1.820078 -0.6292266,0.656906 -1.3808058,1.293612 -2.2467882,1.902362 -0.8691623,0.607215 -1.7351447,1.124357 -2.5963616,1.540539 -0.865982,0.420848 -1.642985,0.63206 -2.337361,0.63206 -2.423165,0 -3.926322,-0.700397 -4.504702,-2.104261 -0.575203,-1.39922 -0.923186,-2.902469 -1.037591,-4.492711 l -1.55877,2.105828 c -0.233576,0.187822 -0.376583,0.350956 -0.432196,0.489166 -0.06039,0.14136 -0.201799,0.26557 -0.433787,0.355622 l 0,5.053333 c 0,0.09469 -0.114413,0.141359 -0.344805,0.141359 -0.233578,0 -0.460797,0.04193 -0.692786,0.144509 l -0.174778,0 -1.383987,0 -0.346393,0 c -1.84478,0 -3.406729,-0.338553 -4.674719,-0.987683 -1.269587,-0.656907 -2.507386,-1.405421 -3.718174,-2.250228 -1.217145,-0.837051 -2.456533,-1.591787 -3.7277,-2.245583 -1.266401,-0.656886 -2.828349,-0.984571 -4.671543,-0.984571 -0.807193,0 -1.56036,0.04666 -2.253147,0.145887 -0.692785,0.09155 -1.212376,0.422403 -1.555591,0.983016 1.271168,-0.190972 2.593184,-0.08997 3.980345,0.274864 1.383986,0.375822 2.365963,0.989238 2.945932,1.826287 0.344804,0.187824 0.691198,0.656907 1.03759,1.408532 l -0.346392,0.425496 -2.427931,-0.425496 c 0,-0.09784 -0.489399,-0.264014 -1.465021,-0.495407 -0.986746,-0.234482 -1.592138,-0.394446 -1.822538,-0.490719 -0.694376,-0.192548 -1.469787,-0.680198 -2.329416,-1.472203 -0.869161,-0.799781 -1.593726,-1.195784 -2.172109,-1.195784 l 0,3.654113 -0.865982,0.425496 c -1.380807,0.465894 -2.712355,0.858785 -3.975578,1.189582 -1.274346,0.321444 -2.427932,0.866542 -3.467111,1.615057 -1.26958,0.653795 -2.340539,1.399218 -3.201755,2.242471 -0.865984,0.847918 -1.879741,1.593344 -3.030148,2.247135 -0.581557,0.186442 -1.469787,0.445692 -2.682164,0.767164 -1.213965,0.33388 -1.819359,0.732978 -1.819359,1.200426 0,0.65535 0.346393,1.045159 1.040769,1.189586 0.689609,0.144505 1.438008,0.212744 2.251556,0.212744 l 1.383985,0 c 1.841605,0 3.659374,-0.122652 5.4549,-0.357171 1.784402,-0.234509 3.662553,-0.343225 5.620152,-0.343225 0.233578,0 0.668953,0.01974 1.304536,0.06521 0.630818,0.04351 1.295002,0.147471 1.986199,0.277996 0.695966,0.144308 1.326784,0.288845 1.908341,0.42552 0.575206,0.146074 0.862807,0.350955 0.862807,0.633597 l -0.171603,0 c -1.03759,1.032727 -2.392975,1.799881 -4.069328,2.31547 -1.676352,0.515568 -2.974533,1.330862 -3.896129,2.453639 l 0.865983,0.56684 c 1.501568,-0.753184 2.860128,-1.163165 4.069327,-1.267215 1.212378,-0.08996 2.620195,-0.135062 4.237757,-0.135062 2.659919,0 5.138696,0.155344 7.447456,0.486073 2.308758,0.329245 4.727156,0.493857 7.271081,0.493857 l 1.040768,0 c 0.344804,0 0.802424,-0.02345 1.383985,-0.06837 0.579971,-0.05746 1.040769,-0.07622 1.380806,-0.07622 l 1.043947,0 c 2.305581,-0.559055 4.294959,-1.236139 5.972901,-2.037475 1.671586,-0.784229 3.203344,-1.680283 4.588917,-2.664879 1.380806,-0.981455 2.740956,-2.014184 4.0629705,-3.084161 1.3283721,-1.079311 2.8013371,-2.178805 4.420487,-3.301586 0.8024248,1.593323 1.700187,2.950608 2.6821642,4.070298 0.98038932,1.122799 2.27856983,2.248693 3.8977195,3.371469 0.4623879,0.184872 1.2981805,0.532655 2.5105584,1.054471 1.2123759,0.514031 2.4485854,1.052879 3.7165761,1.613514 1.2743446,0.565281 2.4883123,1.099474 3.6371303,1.611945 1.156761,0.51403 1.962364,0.868108 2.426342,1.056023 1.383984,0.653803 2.945932,1.403868 4.671542,2.245563 1.733558,0.844817 3.351119,1.802981 4.851096,2.882293 1.496801,1.066894 2.767968,2.289074 3.808736,3.646365 1.039181,1.35415 1.555592,2.82949 1.555592,4.42436 0,1.02495 -0.405184,1.63371 -1.210785,1.82627 -0.807193,0.17858 -1.790758,0.32302 -2.941169,0.42087 0.228813,0.46743 0.37023,0.83703 0.430609,1.1212 0.05879,0.28265 0.0858,0.64915 0.0858,1.12281 l 0,0.83861 c 0,0.3758 -0.287601,0.56217 -0.865982,0.56217 l -0.17478,-0.1398 c -0.112807,0 -0.459208,-0.19097 -1.03759,-0.55749 -0.578381,-0.37738 -0.978799,-0.65538 -1.209197,-0.84328 -0.343218,0.0868 -0.583149,0.39913 -0.6912,0.90849 -0.119161,0.51558 -0.260588,1.08085 -0.432197,1.69116 -0.171604,0.60255 -0.492577,1.13834 -0.954964,1.61196 -0.462387,0.46744 -1.153585,0.69884 -2.076771,0.69884 l 0,3.79386 -0.694376,0.27489 -2.596361,-1.82318 -0.518001,0 c 0,2.90247 0.805604,5.47572 2.423165,7.72597 0,0.18172 -0.29237,0.27486 -0.867573,0.27486 l -0.691198,0 c -2.075181,0 -3.811914,-0.41618 -5.192721,-1.26099 0,0.0947 -0.03019,0.30593 -0.08579,0.63359 -0.06357,0.32767 -0.08899,0.53422 -0.08899,0.6274 0,1.40853 0.373404,2.95527 1.124984,4.63869 0.753165,1.68495 1.876561,2.98943 3.378127,3.92897 l 0,0.28108 c 0,0.4659 -0.378172,0.79668 -1.124983,0.98146 -0.751578,0.18645 -1.415764,0.28109 -1.990967,0.28109 l 0,0.13821 2.424753,1.82784 0,0.42395 c -1.269579,0.46901 -2.570937,1.11969 -3.89613,1.9614 -1.3299602,0.84478 -1.9941442,1.87597 -1.9941442,3.09349 l 0,0.55905 c 0.2351659,0 0.6911961,-0.0714 1.3839833,-0.20963 0.6943769,-0.13822 1.1551749,-0.26091 1.3871619,-0.34942 l 0.173191,0 c 0.927952,0 1.878153,0.13819 2.856952,0.41617 0.977208,0.2842 1.472965,0.84482 1.472965,1.68342 0,0.28417 -0.204975,0.65535 -0.605393,1.12589 -0.408363,0.46431 -0.606983,0.79667 -0.606983,0.98457 0.114414,0.0932 0.316203,0.2112 0.606983,0.34942 0.284423,0.14294 0.430608,0.30438 0.430608,0.49538 0.116002,0.18488 0.174779,0.32302 0.174779,0.41309 0,0.75319 -0.519591,1.17559 -1.560359,1.26878 -1.037592,0.0917 -1.841606,0.14136 -2.421576,0.14136 0,0.74542 0.57997,1.24081 1.728788,1.47065 1.155175,0.23603 2.392974,0.44724 3.726112,0.63205 1.322014,0.18625 2.566172,0.44104 3.719757,0.77647 1.150406,0.32459 1.735143,0.95506 1.735143,1.8884 0,0.84636 -0.239932,1.68494 -0.692785,2.52977 -0.463978,0.84013 -0.691199,1.77502 -0.691199,2.8093 0.691199,0 1.231443,-0.47211 1.641395,-1.40543 0.403596,-0.93489 1.061426,-1.40387 1.987791,-1.40387 1.040769,0 1.75739,0.32766 2.165752,0.98768 0.402005,0.64758 0.692787,1.42094 0.861217,2.3139 0.177963,0.8883 0.352747,1.77813 0.522766,2.66799 0.171602,0.88827 0.432197,1.56536 0.778591,2.03434 0.233575,-0.93486 0.667363,-1.77966 1.298181,-2.52508 0.637174,-0.75321 1.58896,-1.12281 2.85695,-1.12281 2.081537,0 3.17633,0.74233 3.293915,2.24247 0.112807,0.65535 -0.322559,1.05291 -1.301358,1.19423 -0.981979,0.14137 -1.704956,0.30438 -2.165754,0.49228 0.460798,0.46898 1.039179,0.77337 1.733555,0.9147 0.695964,0.13821 1.387164,0.21121 2.07995,0.21121 0.45762,0 0.950197,-0.0731 1.468199,-0.21121 0.521178,-0.14136 1.007401,-0.21119 1.472965,-0.21119 l 0.349573,0 c 0,0.18172 0.05083,0.65068 0.168425,1.40231 0.11281,0.75007 0.347982,1.26255 0.692788,1.54673 l 0.17319,0.13821 c 0.341628,0 0.749989,-0.37426 1.2092,-1.12897 0.462386,-0.74698 1.274345,-1.1197 2.424753,-1.1197 0.924774,0 1.676352,0.18782 2.253144,0.56373 0,0.18644 0.02703,0.41929 0.0858,0.70037 0.05719,0.28108 0.08739,0.51714 0.08739,0.7035 0,1.12279 -0.549782,2.03436 -1.649341,2.73784 -1.096383,0.7004 -1.641397,1.28587 -1.641397,1.75641 1.498392,0 2.885552,-0.32769 4.155132,-0.98457 1.271168,-0.65691 2.478779,-1.40079 3.63713,-2.24559 1.155173,-0.84169 2.278569,-1.58867 3.376541,-2.24867 1.093204,-0.65689 2.278568,-0.98302 3.548145,-0.98302 0.578383,0 1.037594,0.0947 1.382397,0.28573 l 0,0.97837 c 0,1.03118 -0.460798,2.01108 -1.382397,2.94905 l 0.689611,0 c 0.810371,0 1.44913,-0.16616 1.903575,-0.49228 0.462385,-0.32921 0.842147,-0.70502 1.131339,-1.12588 0.282834,-0.41309 0.576792,-0.79201 0.862805,-1.11656 0.287601,-0.32924 0.605394,-0.49541 0.951787,-0.49541 l 0.17478,0.13683 c 0.231986,0.0978 0.605391,0.30902 1.12657,0.6367 0.52118,0.32925 0.891407,0.58549 1.123396,0.77338 l 20.260831,15.72366 0,-0.28108 0,-0.13978 c 0,-0.0947 -0.119107,-0.32924 -0.349573,-0.70193 L 69.390447,163.87906 c -0.231988,-0.09 -0.463979,-0.32458 -0.691201,-0.69418 0.227222,-0.46899 0.773826,-0.89139 1.639808,-1.26718 0.867572,-0.37584 1.29977,-0.938 1.29977,-1.68187 l 0,-0.28264 c -0.230399,0.0917 -0.605394,0.21119 -1.128163,0.35254 -0.513231,0.13978 -0.889816,0.29814 -1.120214,0.48915 l -0.347984,0 -0.343217,0 c 0.921599,-0.84169 1.903576,-1.50015 2.939578,-1.96758 1.042358,-0.46899 1.560359,-1.35729 1.560359,-2.66333 l -0.174779,0 c -0.235168,0 -0.753169,0.23139 -1.557183,0.7035 -0.80878,0.46434 -1.32837,0.79356 -1.55877,0.97837 l 0,-0.28264 c 0,-0.46434 0.144605,-0.91006 0.430609,-1.33089 0.2876,-0.42084 0.435375,-0.96283 0.435375,-1.61507 l -0.691197,0 -2.079948,1.68341 0,-0.13663 c 0,-1.31226 0.230398,-2.3931 0.695961,-3.23016 0.343218,-0.47053 0.889819,-1.19267 1.639809,-2.17415 0.748401,-0.98456 1.525402,-2.03746 2.342127,-3.16647 0.800836,-1.11969 1.552414,-2.17258 2.243612,-3.15559 0.692786,-0.97838 1.155173,-1.66168 1.387162,-2.03748 0.233577,-0.36961 0.374994,-0.62739 0.432197,-0.76716 0.06192,-0.14136 0.08899,-0.35406 0.08899,-0.63206 0,-1.12433 -0.581558,-2.06231 -1.731967,-2.81086 -1.155174,-0.74696 -2.192764,-1.35726 -3.111184,-1.82471 -0.231987,-0.0947 -0.61016,-0.39601 -1.12975,-0.91002 -0.521178,-0.51559 -0.84056,-0.77494 -0.951788,-0.77494 -0.346393,-0.18782 -0.900939,-0.18782 -1.644573,0 -0.753167,0.18488 -1.245744,0.28265 -1.472967,0.28265 l 0,-1.26412 c 0,-0.18644 0.114414,-0.51557 0.346396,-0.98302 -0.119108,0.0932 -0.376586,0.23606 -0.781771,0.42084 -0.406773,0.18783 -0.721386,0.32458 -0.947019,0.42088 l -0.171602,0 -0.17478,0 c -0.349571,-0.1894 -0.521178,-0.33079 -0.521178,-0.42088 0,-0.18486 0.114397,-0.49227 0.343214,-0.91312 0.227222,-0.42087 0.403599,-0.72679 0.524358,-0.91469 l -0.171602,0 -0.174779,0 c -0.808781,0 -1.27117,0.37581 -1.39034,1.11969 -0.109702,-0.1833 -0.233577,-0.43795 -0.346393,-0.76717 -0.112756,-0.32768 -0.346393,-0.58391 -0.68802,-0.76872 0,0.0917 -0.0286,0.39599 -0.08899,0.91002 -0.05884,0.51561 -0.144605,1.05137 -0.257412,1.61509 -0.112755,0.55907 -0.258999,1.07464 -0.433784,1.5452 -0.174779,0.46589 -0.319383,0.70036 -0.433788,0.70036 0.460798,0.18784 0.867572,0.51249 1.213966,0.98304 0.341627,0.46744 0.514823,0.93489 0.514823,1.40387 l 0,0.13978 c -0.2304,0.18488 -0.603805,0.51404 -1.120216,0.97994 -0.52118,0.46898 -1.069371,0.89138 -1.647751,1.27032 l -0.694376,0.56059 c -0.233578,0.0917 -0.460799,0.22984 -0.692789,0.41776 -0.233575,0.18782 -0.459209,0.28108 -0.689607,0.28108 -0.116002,0 -0.32415,-0.0496 -0.608573,-0.1382 -0.289189,-0.0932 -0.490988,-0.14294 -0.606981,-0.14294 -0.228812,0 -0.462388,-0.0202 -0.688019,-0.0699 -0.236757,-0.0482 -0.462388,-0.0699 -0.694376,-0.0699 -0.808781,0 -1.552415,0.1195 -2.24679,0.35404 -0.692788,0.22829 -1.445954,0.34941 -2.254735,0.34941 l 0,-0.28263 c 1.617562,-1.86976 2.713944,-3.04068 3.290735,-3.50968 l 0.17478,-0.41774 c 0.227221,-0.19097 0.543424,-0.54042 0.951787,-1.05599 0.400418,-0.51093 0.662596,-0.76871 0.778591,-0.76871 0.347981,-0.28421 0.804014,-0.77493 1.380806,-1.47843 0.58156,-0.69883 1.153584,-1.45045 1.736733,-2.24557 0.575205,-0.79668 1.123394,-1.52347 1.642984,-2.17413 0.518002,-0.65845 0.889818,-1.0762 1.126573,-1.26411 0.805603,-1.03116 1.469788,-2.10581 1.986201,-3.22858 0.524357,-1.1259 1.069368,-2.29841 1.647751,-3.51281 0,-0.0963 0.114414,-0.55905 0.346393,-1.40233 0.691197,-1.02649 1.561948,-1.94118 2.596362,-2.73941 1.040768,-0.7951 1.963954,-1.70667 2.771146,-2.73319 0.576793,-0.84636 1.150407,-1.85267 1.735143,-3.02205 0.572027,-1.16625 1.144051,-2.1726 1.727201,-3.0174 l 0.865984,0.28264 17.658114,10.10197 c 0.346393,0.28575 0.808781,0.42551 1.38716,0.42551 0.924775,0 1.932177,-0.44414 3.028558,-1.33398 1.094796,-0.88829 1.871796,-1.56848 2.334184,-2.03749 l 0,-0.56215 0,-1.82473 0,-0.55751 0,-0.70194 0,-1.96914 0,-0.27332 c -0.1128,-0.56992 -0.22563,-1.69273 -0.3448,-3.37147 -0.117594,-1.68961 -0.260594,-3.53451 -0.432201,-5.54873 -0.174779,-2.011053 -0.317793,-3.95691 -0.432198,-5.828228 -0.114413,-1.872867 -0.171603,-3.223958 -0.171603,-4.06874 -0.11759,-0.658473 -0.231988,-1.503275 -0.344805,-2.52512 -0.119161,-1.034265 -0.400418,-1.826269 -0.86916,-2.391539 -0.68961,-0.746969 -1.498391,-1.141433 -2.421577,-1.188016 -0.924774,-0.05746 -1.619149,-0.39755 -2.083127,-1.05602 l -3.455987,-5.47262 c -0.691198,-0.375803 -1.387163,-0.56526 -2.075183,-0.56526 -0.584738,0 -1.09956,0.298153 -1.561948,0.91157 -0.465566,0.608769 -0.896174,1.333988 -1.29818,2.174135 -0.409951,0.847921 -0.727744,1.663217 -0.951787,2.464555 -0.235166,0.790445 -0.344804,1.37748 -0.344804,1.751748 l 0,0.281082 c 0,0.189397 0.08414,0.534192 0.259001,1.055998 0.171602,0.510923 0.257411,0.858782 0.257411,1.046685 l -0.171604,0 -0.344803,0 -0.869161,-0.422401 0,0.7066 2.078358,1.824732 c -0.233574,0.183291 -0.640348,0.470545 -1.209197,0.838587 0.225631,0.190968 0.600627,0.307484 1.123394,0.354067 0.51959,0.04351 1.005812,0.110254 1.471378,0.211217 l 0,0.425509 c 0,0.465878 -0.174779,0.697268 -0.519589,0.697268 l -3.117541,0 c 0,0.843253 0.52118,1.472205 1.55877,1.89305 1.039179,0.422413 1.846372,0.72214 2.427933,0.910044 0,0.09923 0.02377,0.167741 0.08263,0.211206 0.05567,0.04645 0.0858,0.122651 0.0858,0.211195 0,0.470544 -0.201798,0.843254 -0.603805,1.122798 -0.408364,0.290396 -0.838972,0.512485 -1.29977,0.703475 0.115932,0.09629 0.578383,0.184872 1.385573,0.284189 0.808781,0.0917 1.6986,0.324579 2.682165,0.703515 0.977211,0.369581 1.873383,1.026479 2.685344,1.967569 0.800835,0.92556 1.20602,2.33721 1.20602,4.20386 l 0,1.40696 c 0,0.37273 -0.1064,0.83861 -0.343215,1.4039 l -3.633952,-2.81086 c -0.346393,-0.37581 -1.013757,-1.0793 -1.989379,-2.10271 -0.986743,-1.03115 -2.021157,-2.10115 -3.11754,-3.223917 -1.099558,-1.124357 -2.135562,-2.234712 -3.112771,-3.304693 -0.986745,-1.076203 -1.650931,-1.803 -1.995733,-2.175691 0,-0.08996 -0.06191,-0.212765 -0.174781,-0.347893 -0.114413,-0.144307 -0.174778,-0.263994 -0.174778,-0.355622 -0.22881,-0.375797 -0.429018,-1.010974 -0.603805,-1.888382 -0.174779,-0.90226 -0.262178,-1.438045 -0.262178,-1.624389 -0.109579,-0.08996 -0.168427,-0.368065 -0.168427,-0.835501 l 0,-0.987682 0,-2.671072 0,-2.80309 0,-1.125906 c 0,-0.274865 0.05886,-0.417734 0.168427,-0.417734 -0.233579,-0.844895 -0.486227,-1.458309 -0.775416,-1.8248 -0.29078,-0.374267 -0.637173,-0.63206 -1.040769,-0.776491 -0.400418,-0.13821 -0.838973,-0.236037 -1.29818,-0.281083 -0.45762,-0.04194 -1.034414,-0.253128 -1.727201,-0.630486 -0.235166,-0.0886 -0.867571,-0.490741 -1.903573,-1.188027 -1.040769,-0.703487 -1.676353,-1.105691 -1.903576,-1.189563 -0.233575,-0.190972 -0.726152,-0.545079 -1.476142,-1.06222 -0.74999,-0.506255 -1.356972,-0.767159 -1.814592,-0.767159 -0.346395,0 -0.640351,0.214302 -0.867572,0.627394 -0.233578,0.416203 -0.408364,0.889853 -0.51959,1.408531 -0.112879,0.510921 -0.201798,1.028064 -0.260592,1.54365 -0.05885,0.512476 -0.08899,0.861877 -0.08899,1.049778 0,1.588676 0.349572,3.001873 1.04077,4.211633 0.695965,1.214415 1.615974,2.48162 2.767967,3.79388 -0.343214,0.368044 -0.198619,0.698827 0.436965,0.979908 0.635584,0.284189 1.124983,0.510922 1.472967,0.700375 -0.581562,0.100975 -0.865985,0.518676 -0.865985,1.267214 0.921599,0.565281 1.383984,0.8883 1.383984,0.97837 0,0.100975 0.02377,0.186442 0.08899,0.285747 0.05568,0.09313 0.0858,0.232928 0.0858,0.423939 l 0,0.557518 c 0,0.189411 -0.06357,0.444148 -0.174779,0.771812 -0.11916,0.327687 -0.408362,0.495384 -0.865985,0.495384 l -0.343215,0 c -0.695963,-3.093455 -2.079949,-5.781646 -4.158308,-8.073792 -2.078361,-2.299932 -4.530124,-4.281504 -7.360064,-5.969565 -2.82517,-1.680302 -5.944299,-3.090389 -9.34944,-4.21008 -3.400374,-1.130537 -6.838886,-1.964477 -10.29805,-2.528201 -1.156763,-0.468986 -1.730378,-1.034265 -1.730378,-1.680303 0,-1.602664 0.259,-3.19132 0.773823,-4.781551 0.524357,-1.591784 0.781768,-3.272081 0.781768,-5.051768 0,-4.121543 -0.692787,-7.859506 -2.078359,-11.229421 -1.383985,-3.371466 -2.829938,-7.017804 -4.326739,-10.954547 0,-0.08858 -0.05879,-0.375815 -0.174781,-0.844808 -0.114413,-0.467439 -0.171601,-0.838596 -0.171601,-1.122787 l 0,-0.132008 c 0,-1.779685 0.719799,-3.351276 2.165752,-4.707006 1.43801,-1.355729 2.907796,-2.554612 4.414131,-3.57801 0.116002,-0.191011 0.633995,-0.593227 1.557181,-1.19422 0.921598,-0.608759 1.903574,-1.267212 2.942753,-1.966043 1.034413,-0.701935 2.01798,-1.335541 2.942756,-1.900819 0.924775,-0.555956 1.501567,-0.88829 1.731965,-0.978359 0.924776,-0.653796 1.671586,-1.355731 2.249968,-2.102704 0.576792,-0.753182 0.748402,-1.643025 0.518001,-2.667977 l 2.944344,-5.057975 c 0.114397,0 0.174778,-0.04969 0.174778,-0.135098 l 0,-0.290403 z"
       style="fill:#445500;fill-opacity:1;fill-rule:nonzero;stroke:none"
       id="path400"
       inkscape:connector-curvature="0" /></g></svg>